<mxfile host="app.diagrams.net" modified="2024-01-23T20:02:29.233Z" agent="Mozilla/5.0 (Windows NT 10.0; Win64; x64) AppleWebKit/537.36 (KHTML, like Gecko) Chrome/120.0.0.0 Safari/537.36" etag="eLNA8KTgWbiU-F0k02jr" version="22.1.22" type="device">
  <diagram id="eTXppi5dX1w3K8ufyLmg" name="IOD 1st diagram">
    <mxGraphModel dx="2343" dy="624" grid="1" gridSize="10" guides="1" tooltips="1" connect="1" arrows="1" fold="1" page="1" pageScale="1" pageWidth="850" pageHeight="1100" background="#ffffff" math="0" shadow="0">
      <root>
        <mxCell id="0" />
        <mxCell id="1" parent="0" />
        <mxCell id="VH2nDdib1lLhgivkMNeS-1" style="edgeStyle=orthogonalEdgeStyle;rounded=0;orthogonalLoop=1;jettySize=auto;html=1;entryX=0.488;entryY=-0.002;entryDx=0;entryDy=0;entryPerimeter=0;" edge="1" parent="1" source="VH2nDdib1lLhgivkMNeS-3" target="VH2nDdib1lLhgivkMNeS-16">
          <mxGeometry relative="1" as="geometry">
            <mxPoint y="100" as="targetPoint" />
          </mxGeometry>
        </mxCell>
        <mxCell id="VH2nDdib1lLhgivkMNeS-2" style="edgeStyle=orthogonalEdgeStyle;rounded=0;orthogonalLoop=1;jettySize=auto;html=1;entryX=0.507;entryY=0.003;entryDx=0;entryDy=0;entryPerimeter=0;" edge="1" parent="1" source="VH2nDdib1lLhgivkMNeS-3" target="VH2nDdib1lLhgivkMNeS-41">
          <mxGeometry relative="1" as="geometry">
            <mxPoint x="650" y="40" as="targetPoint" />
            <Array as="points">
              <mxPoint x="724" y="40" />
            </Array>
          </mxGeometry>
        </mxCell>
        <mxCell id="VH2nDdib1lLhgivkMNeS-3" value="" style="ellipse;html=1;shape=startState;fillColor=#000000;strokeColor=#ff0000;" vertex="1" parent="1">
          <mxGeometry x="255" y="20" width="40" height="40" as="geometry" />
        </mxCell>
        <mxCell id="VH2nDdib1lLhgivkMNeS-4" value="&lt;b&gt;:HR&lt;/b&gt;" style="html=1;" vertex="1" parent="1">
          <mxGeometry x="-200" y="120" width="110" height="50" as="geometry" />
        </mxCell>
        <mxCell id="VH2nDdib1lLhgivkMNeS-5" style="edgeStyle=orthogonalEdgeStyle;rounded=0;orthogonalLoop=1;jettySize=auto;html=1;exitX=0.5;exitY=1;exitDx=0;exitDy=0;" edge="1" parent="1" source="VH2nDdib1lLhgivkMNeS-4" target="VH2nDdib1lLhgivkMNeS-10">
          <mxGeometry relative="1" as="geometry" />
        </mxCell>
        <mxCell id="VH2nDdib1lLhgivkMNeS-6" style="edgeStyle=orthogonalEdgeStyle;rounded=0;orthogonalLoop=1;jettySize=auto;html=1;entryX=0.811;entryY=0.079;entryDx=0;entryDy=0;entryPerimeter=0;exitX=0.144;exitY=0.075;exitDx=0;exitDy=0;exitPerimeter=0;" edge="1" parent="1" source="VH2nDdib1lLhgivkMNeS-13" target="VH2nDdib1lLhgivkMNeS-10">
          <mxGeometry relative="1" as="geometry">
            <mxPoint x="-130" y="220" as="targetPoint" />
          </mxGeometry>
        </mxCell>
        <mxCell id="VH2nDdib1lLhgivkMNeS-7" value="Request comes to HR" style="edgeLabel;html=1;align=center;verticalAlign=middle;resizable=0;points=[];" vertex="1" connectable="0" parent="VH2nDdib1lLhgivkMNeS-6">
          <mxGeometry x="-0.0936" y="1" relative="1" as="geometry">
            <mxPoint x="-8" as="offset" />
          </mxGeometry>
        </mxCell>
        <mxCell id="VH2nDdib1lLhgivkMNeS-8" style="edgeStyle=orthogonalEdgeStyle;rounded=0;orthogonalLoop=1;jettySize=auto;html=1;" edge="1" parent="1">
          <mxGeometry relative="1" as="geometry">
            <mxPoint x="-149" y="310" as="targetPoint" />
            <mxPoint x="-150" y="259" as="sourcePoint" />
            <Array as="points">
              <mxPoint x="-149" y="259" />
              <mxPoint x="-240" y="259" />
              <mxPoint x="-240" y="310" />
              <mxPoint x="-167" y="310" />
              <mxPoint x="-149" y="309" />
            </Array>
          </mxGeometry>
        </mxCell>
        <mxCell id="VH2nDdib1lLhgivkMNeS-9" value="Reviews request" style="edgeLabel;html=1;align=center;verticalAlign=middle;resizable=0;points=[];" vertex="1" connectable="0" parent="VH2nDdib1lLhgivkMNeS-8">
          <mxGeometry x="-0.4661" y="-1" relative="1" as="geometry">
            <mxPoint x="-38" y="22" as="offset" />
          </mxGeometry>
        </mxCell>
        <mxCell id="VH2nDdib1lLhgivkMNeS-10" value="" style="html=1;points=[];perimeter=orthogonalPerimeter;fillColor=strokeColor;" vertex="1" parent="1">
          <mxGeometry x="-147.5" y="200" width="5" height="140" as="geometry" />
        </mxCell>
        <mxCell id="VH2nDdib1lLhgivkMNeS-11" value="&lt;b&gt;:requestForNot&lt;br&gt;Available&lt;/b&gt;" style="html=1;" vertex="1" parent="1">
          <mxGeometry x="-10" y="120" width="110" height="50" as="geometry" />
        </mxCell>
        <mxCell id="VH2nDdib1lLhgivkMNeS-12" style="edgeStyle=orthogonalEdgeStyle;rounded=0;orthogonalLoop=1;jettySize=auto;html=1;exitX=0.5;exitY=1;exitDx=0;exitDy=0;" edge="1" parent="1" source="VH2nDdib1lLhgivkMNeS-11" target="VH2nDdib1lLhgivkMNeS-13">
          <mxGeometry relative="1" as="geometry" />
        </mxCell>
        <mxCell id="VH2nDdib1lLhgivkMNeS-13" value="" style="html=1;points=[];perimeter=orthogonalPerimeter;fillColor=strokeColor;" vertex="1" parent="1">
          <mxGeometry x="42.5" y="200" width="5" height="140" as="geometry" />
        </mxCell>
        <mxCell id="VH2nDdib1lLhgivkMNeS-14" style="edgeStyle=orthogonalEdgeStyle;rounded=0;orthogonalLoop=1;jettySize=auto;html=1;" edge="1" parent="1" source="VH2nDdib1lLhgivkMNeS-16" target="VH2nDdib1lLhgivkMNeS-21">
          <mxGeometry relative="1" as="geometry">
            <mxPoint x="-99.92000000000007" y="420" as="targetPoint" />
          </mxGeometry>
        </mxCell>
        <mxCell id="VH2nDdib1lLhgivkMNeS-15" style="edgeStyle=orthogonalEdgeStyle;rounded=0;orthogonalLoop=1;jettySize=auto;html=1;entryX=0;entryY=0.5;entryDx=0;entryDy=0;fontSize=12;exitX=0.717;exitY=1.01;exitDx=0;exitDy=0;exitPerimeter=0;" edge="1" parent="1" source="VH2nDdib1lLhgivkMNeS-16" target="VH2nDdib1lLhgivkMNeS-44">
          <mxGeometry relative="1" as="geometry">
            <Array as="points">
              <mxPoint y="670" />
            </Array>
          </mxGeometry>
        </mxCell>
        <mxCell id="VH2nDdib1lLhgivkMNeS-16" value="HR approval" style="shape=umlFrame;whiteSpace=wrap;html=1;width=120;height=30;boundedLbl=1;verticalAlign=middle;align=left;spacingLeft=5;" vertex="1" parent="1">
          <mxGeometry x="-330" y="100" width="460" height="260" as="geometry" />
        </mxCell>
        <mxCell id="VH2nDdib1lLhgivkMNeS-17" style="edgeStyle=orthogonalEdgeStyle;rounded=0;orthogonalLoop=1;jettySize=auto;html=1;" edge="1" parent="1" source="VH2nDdib1lLhgivkMNeS-21" target="VH2nDdib1lLhgivkMNeS-22">
          <mxGeometry relative="1" as="geometry">
            <mxPoint x="-180" y="570" as="targetPoint" />
          </mxGeometry>
        </mxCell>
        <mxCell id="VH2nDdib1lLhgivkMNeS-18" value="No" style="edgeLabel;html=1;align=center;verticalAlign=middle;resizable=0;points=[];" vertex="1" connectable="0" parent="VH2nDdib1lLhgivkMNeS-17">
          <mxGeometry x="0.4389" y="3" relative="1" as="geometry">
            <mxPoint as="offset" />
          </mxGeometry>
        </mxCell>
        <mxCell id="VH2nDdib1lLhgivkMNeS-19" style="edgeStyle=orthogonalEdgeStyle;rounded=0;orthogonalLoop=1;jettySize=auto;html=1;entryX=-0.005;entryY=0.511;entryDx=0;entryDy=0;entryPerimeter=0;" edge="1" parent="1" source="VH2nDdib1lLhgivkMNeS-21" target="VH2nDdib1lLhgivkMNeS-41">
          <mxGeometry relative="1" as="geometry">
            <mxPoint x="243.84003906249995" y="470" as="targetPoint" />
          </mxGeometry>
        </mxCell>
        <mxCell id="VH2nDdib1lLhgivkMNeS-20" value="Yes" style="edgeLabel;html=1;align=center;verticalAlign=middle;resizable=0;points=[];" vertex="1" connectable="0" parent="VH2nDdib1lLhgivkMNeS-19">
          <mxGeometry x="-0.3712" y="-3" relative="1" as="geometry">
            <mxPoint as="offset" />
          </mxGeometry>
        </mxCell>
        <mxCell id="VH2nDdib1lLhgivkMNeS-21" value="Did the HR&amp;nbsp;&lt;br&gt;approve" style="rhombus;whiteSpace=wrap;html=1;" vertex="1" parent="1">
          <mxGeometry x="-140" y="430" width="80" height="80" as="geometry" />
        </mxCell>
        <mxCell id="VH2nDdib1lLhgivkMNeS-22" value="" style="ellipse;html=1;shape=endState;fillColor=#000000;strokeColor=#ff0000;" vertex="1" parent="1">
          <mxGeometry x="-195" y="555" width="30" height="30" as="geometry" />
        </mxCell>
        <mxCell id="VH2nDdib1lLhgivkMNeS-23" value=":finance" style="html=1;" vertex="1" parent="1">
          <mxGeometry x="540" y="120" width="110" height="50" as="geometry" />
        </mxCell>
        <mxCell id="VH2nDdib1lLhgivkMNeS-24" value=":supplier" style="html=1;" vertex="1" parent="1">
          <mxGeometry x="830" y="120" width="110" height="50" as="geometry" />
        </mxCell>
        <mxCell id="VH2nDdib1lLhgivkMNeS-25" style="edgeStyle=orthogonalEdgeStyle;rounded=0;orthogonalLoop=1;jettySize=auto;html=1;exitX=0.5;exitY=1;exitDx=0;exitDy=0;" edge="1" parent="1" source="VH2nDdib1lLhgivkMNeS-23" target="VH2nDdib1lLhgivkMNeS-28">
          <mxGeometry relative="1" as="geometry" />
        </mxCell>
        <mxCell id="VH2nDdib1lLhgivkMNeS-26" style="edgeStyle=orthogonalEdgeStyle;rounded=0;orthogonalLoop=1;jettySize=auto;html=1;" edge="1" parent="1" source="VH2nDdib1lLhgivkMNeS-28">
          <mxGeometry relative="1" as="geometry">
            <mxPoint x="880" y="230" as="targetPoint" />
            <Array as="points">
              <mxPoint x="860" y="230" />
              <mxPoint x="860" y="230" />
            </Array>
          </mxGeometry>
        </mxCell>
        <mxCell id="VH2nDdib1lLhgivkMNeS-27" value="Sends supplier request" style="edgeLabel;html=1;align=center;verticalAlign=middle;resizable=0;points=[];" vertex="1" connectable="0" parent="VH2nDdib1lLhgivkMNeS-26">
          <mxGeometry x="-0.1367" y="-1" relative="1" as="geometry">
            <mxPoint x="20" as="offset" />
          </mxGeometry>
        </mxCell>
        <mxCell id="VH2nDdib1lLhgivkMNeS-28" value="" style="html=1;points=[];perimeter=orthogonalPerimeter;fillColor=strokeColor;" vertex="1" parent="1">
          <mxGeometry x="592.5" y="200" width="5" height="300" as="geometry" />
        </mxCell>
        <mxCell id="VH2nDdib1lLhgivkMNeS-29" style="edgeStyle=orthogonalEdgeStyle;rounded=0;orthogonalLoop=1;jettySize=auto;html=1;exitX=0.5;exitY=1;exitDx=0;exitDy=0;" edge="1" parent="1" source="VH2nDdib1lLhgivkMNeS-24" target="VH2nDdib1lLhgivkMNeS-32">
          <mxGeometry relative="1" as="geometry" />
        </mxCell>
        <mxCell id="VH2nDdib1lLhgivkMNeS-30" style="edgeStyle=orthogonalEdgeStyle;rounded=0;orthogonalLoop=1;jettySize=auto;html=1;entryX=0.5;entryY=0;entryDx=0;entryDy=0;exitX=-0.009;exitY=0.632;exitDx=0;exitDy=0;exitPerimeter=0;" edge="1" parent="1" target="VH2nDdib1lLhgivkMNeS-39">
          <mxGeometry relative="1" as="geometry">
            <mxPoint x="887.4449999999999" y="474.6" as="sourcePoint" />
            <Array as="points">
              <mxPoint x="887.99" y="395" />
              <mxPoint x="749.99" y="395" />
            </Array>
          </mxGeometry>
        </mxCell>
        <mxCell id="VH2nDdib1lLhgivkMNeS-31" value="Request feedback" style="edgeLabel;html=1;align=center;verticalAlign=middle;resizable=0;points=[];" vertex="1" connectable="0" parent="VH2nDdib1lLhgivkMNeS-30">
          <mxGeometry x="0.1201" y="-1" relative="1" as="geometry">
            <mxPoint x="8" as="offset" />
          </mxGeometry>
        </mxCell>
        <mxCell id="VH2nDdib1lLhgivkMNeS-32" value="" style="html=1;points=[];perimeter=orthogonalPerimeter;fillColor=strokeColor;" vertex="1" parent="1">
          <mxGeometry x="882.5" y="200" width="5" height="300" as="geometry" />
        </mxCell>
        <mxCell id="VH2nDdib1lLhgivkMNeS-33" style="edgeStyle=orthogonalEdgeStyle;rounded=0;orthogonalLoop=1;jettySize=auto;html=1;exitX=1.5;exitY=0.167;exitDx=0;exitDy=0;exitPerimeter=0;entryX=1.212;entryY=0.496;entryDx=0;entryDy=0;entryPerimeter=0;" edge="1" parent="1" source="VH2nDdib1lLhgivkMNeS-32" target="VH2nDdib1lLhgivkMNeS-32">
          <mxGeometry relative="1" as="geometry">
            <mxPoint x="900" y="290" as="targetPoint" />
            <mxPoint x="888.855" y="239.24" as="sourcePoint" />
            <Array as="points">
              <mxPoint x="990" y="250" />
              <mxPoint x="990" y="349" />
            </Array>
          </mxGeometry>
        </mxCell>
        <mxCell id="VH2nDdib1lLhgivkMNeS-34" value="Reviews request" style="edgeLabel;html=1;align=center;verticalAlign=middle;resizable=0;points=[];" vertex="1" connectable="0" parent="VH2nDdib1lLhgivkMNeS-33">
          <mxGeometry x="0.071" y="2" relative="1" as="geometry">
            <mxPoint x="-2" y="-5" as="offset" />
          </mxGeometry>
        </mxCell>
        <mxCell id="VH2nDdib1lLhgivkMNeS-35" style="edgeStyle=orthogonalEdgeStyle;rounded=0;orthogonalLoop=1;jettySize=auto;html=1;entryX=1.02;entryY=0.934;entryDx=0;entryDy=0;entryPerimeter=0;" edge="1" parent="1">
          <mxGeometry relative="1" as="geometry">
            <mxPoint x="597.5" y="479.8299999999999" as="targetPoint" />
            <mxPoint x="725.0899999999997" y="479.8299999999999" as="sourcePoint" />
            <Array as="points">
              <mxPoint x="660.9000000000001" y="479.63" />
            </Array>
          </mxGeometry>
        </mxCell>
        <mxCell id="VH2nDdib1lLhgivkMNeS-36" value="Yes/send notif" style="edgeLabel;html=1;align=center;verticalAlign=middle;resizable=0;points=[];fontSize=12;" vertex="1" connectable="0" parent="VH2nDdib1lLhgivkMNeS-35">
          <mxGeometry x="0.4912" relative="1" as="geometry">
            <mxPoint x="40" as="offset" />
          </mxGeometry>
        </mxCell>
        <mxCell id="VH2nDdib1lLhgivkMNeS-37" style="edgeStyle=orthogonalEdgeStyle;rounded=0;orthogonalLoop=1;jettySize=auto;html=1;" edge="1" parent="1" source="VH2nDdib1lLhgivkMNeS-39">
          <mxGeometry relative="1" as="geometry">
            <mxPoint x="824.99" y="555" as="targetPoint" />
            <Array as="points">
              <mxPoint x="824.99" y="480" />
            </Array>
          </mxGeometry>
        </mxCell>
        <mxCell id="VH2nDdib1lLhgivkMNeS-38" value="&lt;font style=&quot;font-size: 12px;&quot;&gt;No&lt;/font&gt;" style="edgeLabel;html=1;align=center;verticalAlign=middle;resizable=0;points=[];fontSize=6;" vertex="1" connectable="0" parent="VH2nDdib1lLhgivkMNeS-37">
          <mxGeometry x="0.5118" y="-3" relative="1" as="geometry">
            <mxPoint x="3" y="-9" as="offset" />
          </mxGeometry>
        </mxCell>
        <mxCell id="VH2nDdib1lLhgivkMNeS-39" value="&lt;font style=&quot;font-size: 6px;&quot;&gt;Did supplier&lt;br&gt;give items&amp;nbsp;&lt;/font&gt;" style="rhombus;whiteSpace=wrap;html=1;" vertex="1" parent="1">
          <mxGeometry x="724.99" y="455" width="50" height="50" as="geometry" />
        </mxCell>
        <mxCell id="VH2nDdib1lLhgivkMNeS-40" value="" style="ellipse;html=1;shape=endState;fillColor=#000000;strokeColor=#ff0000;fontSize=12;rotation=5;" vertex="1" parent="1">
          <mxGeometry x="810" y="555" width="40" height="40" as="geometry" />
        </mxCell>
        <mxCell id="VH2nDdib1lLhgivkMNeS-41" value="Finance buying items" style="shape=umlFrame;whiteSpace=wrap;html=1;width=120;height=30;boundedLbl=1;verticalAlign=middle;align=left;spacingLeft=5;fontSize=12;" vertex="1" parent="1">
          <mxGeometry x="410" y="100" width="640" height="420" as="geometry" />
        </mxCell>
        <mxCell id="VH2nDdib1lLhgivkMNeS-42" style="edgeStyle=orthogonalEdgeStyle;rounded=0;orthogonalLoop=1;jettySize=auto;html=1;fontSize=12;exitX=0.158;exitY=1.002;exitDx=0;exitDy=0;exitPerimeter=0;entryX=1;entryY=0.5;entryDx=0;entryDy=0;" edge="1" parent="1" source="VH2nDdib1lLhgivkMNeS-41" target="VH2nDdib1lLhgivkMNeS-44">
          <mxGeometry relative="1" as="geometry" />
        </mxCell>
        <mxCell id="VH2nDdib1lLhgivkMNeS-43" style="edgeStyle=orthogonalEdgeStyle;rounded=0;orthogonalLoop=1;jettySize=auto;html=1;fontSize=12;" edge="1" parent="1" source="VH2nDdib1lLhgivkMNeS-44">
          <mxGeometry relative="1" as="geometry">
            <mxPoint x="269.9999999999998" y="740" as="targetPoint" />
          </mxGeometry>
        </mxCell>
        <mxCell id="VH2nDdib1lLhgivkMNeS-44" value="Print PDF with bought items" style="rhombus;whiteSpace=wrap;html=1;" vertex="1" parent="1">
          <mxGeometry x="230" y="630" width="80" height="80" as="geometry" />
        </mxCell>
        <mxCell id="VH2nDdib1lLhgivkMNeS-45" value="" style="ellipse;html=1;shape=endState;fillColor=#000000;strokeColor=#ff0000;fontSize=12;rotation=5;" vertex="1" parent="1">
          <mxGeometry x="250" y="740" width="40" height="40" as="geometry" />
        </mxCell>
        <mxCell id="VH2nDdib1lLhgivkMNeS-48" value="" style="html=1;verticalAlign=bottom;endArrow=block;curved=0;rounded=0;fontSize=12;startSize=8;endSize=8;exitX=0.288;exitY=1.015;exitDx=0;exitDy=0;exitPerimeter=0;" edge="1" parent="1" source="VH2nDdib1lLhgivkMNeS-41">
          <mxGeometry width="80" relative="1" as="geometry">
            <mxPoint x="570" y="574.33" as="sourcePoint" />
            <mxPoint x="594" y="770" as="targetPoint" />
            <Array as="points">
              <mxPoint x="594" y="510" />
            </Array>
          </mxGeometry>
        </mxCell>
        <mxCell id="VH2nDdib1lLhgivkMNeS-49" value="Stock Management System" style="shape=umlFrame;whiteSpace=wrap;html=1;width=120;height=30;boundedLbl=1;verticalAlign=middle;align=left;spacingLeft=5;fontSize=12;" vertex="1" parent="1">
          <mxGeometry x="360" y="750" width="540" height="410" as="geometry" />
        </mxCell>
        <mxCell id="VH2nDdib1lLhgivkMNeS-51" value="Finance" style="html=1;whiteSpace=wrap;fontSize=16;" vertex="1" parent="1">
          <mxGeometry x="390" y="840" width="110" height="50" as="geometry" />
        </mxCell>
        <mxCell id="VH2nDdib1lLhgivkMNeS-52" value="Stock Manageres" style="html=1;whiteSpace=wrap;fontSize=16;" vertex="1" parent="1">
          <mxGeometry x="730" y="840" width="110" height="50" as="geometry" />
        </mxCell>
        <mxCell id="VH2nDdib1lLhgivkMNeS-56" value="" style="html=1;verticalAlign=bottom;endArrow=block;curved=0;rounded=0;fontSize=12;startSize=8;endSize=8;exitX=0.778;exitY=0.371;exitDx=0;exitDy=0;exitPerimeter=0;" edge="1" parent="1">
          <mxGeometry width="80" relative="1" as="geometry">
            <mxPoint x="444.33" y="890" as="sourcePoint" />
            <mxPoint x="444" y="930" as="targetPoint" />
            <Array as="points" />
          </mxGeometry>
        </mxCell>
        <mxCell id="VH2nDdib1lLhgivkMNeS-57" value="" style="html=1;verticalAlign=bottom;endArrow=block;curved=0;rounded=0;fontSize=12;startSize=8;endSize=8;exitX=0.778;exitY=0.371;exitDx=0;exitDy=0;exitPerimeter=0;" edge="1" parent="1">
          <mxGeometry width="80" relative="1" as="geometry">
            <mxPoint x="784.33" y="890" as="sourcePoint" />
            <mxPoint x="784" y="930" as="targetPoint" />
            <Array as="points" />
          </mxGeometry>
        </mxCell>
        <mxCell id="VH2nDdib1lLhgivkMNeS-66" value="" style="endArrow=none;html=1;rounded=0;fontSize=12;startSize=8;endSize=8;curved=1;" edge="1" parent="1">
          <mxGeometry relative="1" as="geometry">
            <mxPoint x="444.33" y="1099.67" as="sourcePoint" />
            <mxPoint x="444.33" y="933.9999999999999" as="targetPoint" />
            <Array as="points" />
          </mxGeometry>
        </mxCell>
        <mxCell id="VH2nDdib1lLhgivkMNeS-67" value="" style="endArrow=none;html=1;rounded=0;fontSize=12;startSize=8;endSize=8;curved=1;" edge="1" parent="1">
          <mxGeometry relative="1" as="geometry">
            <mxPoint x="784.3299999999999" y="1099.67" as="sourcePoint" />
            <mxPoint x="784.3299999999999" y="933.9999999999999" as="targetPoint" />
            <Array as="points" />
          </mxGeometry>
        </mxCell>
        <mxCell id="VH2nDdib1lLhgivkMNeS-68" value="Invoice Registration&lt;br&gt;" style="endArrow=block;endSize=16;endFill=0;html=1;rounded=0;fontSize=12;curved=1;" edge="1" parent="1">
          <mxGeometry x="0.0588" y="-10" width="160" relative="1" as="geometry">
            <mxPoint x="450" y="1060" as="sourcePoint" />
            <mxPoint x="790" y="1060" as="targetPoint" />
            <mxPoint as="offset" />
          </mxGeometry>
        </mxCell>
        <mxCell id="VH2nDdib1lLhgivkMNeS-71" value=" initiates the buying process" style="endArrow=block;endSize=16;endFill=0;html=1;rounded=0;fontSize=12;curved=1;" edge="1" parent="1">
          <mxGeometry width="160" relative="1" as="geometry">
            <mxPoint x="450" y="960" as="sourcePoint" />
            <mxPoint x="780" y="960" as="targetPoint" />
          </mxGeometry>
        </mxCell>
        <mxCell id="VH2nDdib1lLhgivkMNeS-72" value="" style="html=1;verticalAlign=bottom;endArrow=block;curved=0;rounded=0;fontSize=12;startSize=8;endSize=8;exitX=0.288;exitY=1.015;exitDx=0;exitDy=0;exitPerimeter=0;entryX=0.5;entryY=1;entryDx=0;entryDy=0;" edge="1" parent="1" target="VH2nDdib1lLhgivkMNeS-45">
          <mxGeometry width="80" relative="1" as="geometry">
            <mxPoint x="620" y="1176" as="sourcePoint" />
            <mxPoint x="280" y="1240" as="targetPoint" />
            <Array as="points">
              <mxPoint x="620" y="1160" />
              <mxPoint x="620" y="1240" />
              <mxPoint x="268" y="1240" />
            </Array>
          </mxGeometry>
        </mxCell>
      </root>
    </mxGraphModel>
  </diagram>
</mxfile>
